<?xml version="1.0" encoding="utf-8"?><svg xml:space="preserve" viewBox="0 0 100 100" y="0" x="0" xmlns="http://www.w3.org/2000/svg" id="圖層_1" version="1.1" width="200px" height="200px" xmlns:xlink="http://www.w3.org/1999/xlink" style="width:100%;height:100%;background-size:initial;background-repeat-y:initial;background-repeat-x:initial;background-position-y:initial;background-position-x:initial;background-origin:initial;background-color:initial;background-clip:initial;background-attachment:initial;animation-play-state:paused" ><g class="ldl-scale" style="transform-origin:50% 50%;transform:rotate(0deg) scale(0.8, 0.8);animation-play-state:paused" ><path fill="#849b87" d="M89.542 22.024c-3.936-3.935-10.342-3.936-14.28 0l-34.53 34.529L24.739 40.56c-3.938-3.936-10.342-3.936-14.28 0A10.03 10.03 0 0 0 7.5 47.701c0 2.698 1.05 5.234 2.958 7.141l23.133 23.133a10.036 10.036 0 0 0 7.141 2.957 10.04 10.04 0 0 0 7.14-2.956l41.67-41.67c1.908-1.907 2.958-4.443 2.958-7.141s-1.05-5.234-2.958-7.141z" style="fill:rgb(40, 167, 69);animation-play-state:paused" ></path>
<metadata xmlns:d="https://loading.io/stock/" style="animation-play-state:paused" ><d:name style="animation-play-state:paused" >check</d:name>


<d:tags style="animation-play-state:paused" >ok,select,choice,circle,option,enable,on,check,form</d:tags>


<d:license style="animation-play-state:paused" >by</d:license>


<d:slug style="animation-play-state:paused" >3yflsb</d:slug></metadata></g><!-- generated by https://loading.io/ --></svg>